<svg xmlns="http://www.w3.org/2000/svg" xmlns:xlink="http://www.w3.org/1999/xlink" width="200" height="250" version="1.0"><defs><linearGradient xlink:href="#a" id="n" x1="-21.764" x2="-101.909" y1="46.291" y2="98.109" gradientTransform="translate(175.438 261.211)" gradientUnits="userSpaceOnUse"/><linearGradient xlink:href="#b" id="m" x1="53.127" x2="65.8" y1="122.476" y2="113.287" gradientTransform="translate(18.438 270.208)" gradientUnits="userSpaceOnUse"/><linearGradient xlink:href="#c" id="l" x1="294.246" x2="312.092" y1="346.327" y2="322.139" gradientTransform="matrix(.14486 0 0 .14486 28.882 325.523)" gradientUnits="userSpaceOnUse"/><linearGradient xlink:href="#d" id="k" x1="653" x2="708" y1="210.362" y2="160.362" gradientUnits="userSpaceOnUse"/><linearGradient id="e"><stop offset="0" style="stop-color:#f0a700;stop-opacity:1"/><stop offset="1" style="stop-color:#ffed00;stop-opacity:1"/></linearGradient><linearGradient xlink:href="#e" id="j" x1="632" x2="698" y1="146.362" y2="85.362" gradientUnits="userSpaceOnUse"/><linearGradient xlink:href="#f" id="i" x1="298.986" x2="449.323" y1="540.539" y2="415.539" gradientTransform="matrix(.14486 0 0 .14486 31.484 326.174)" gradientUnits="userSpaceOnUse"/><linearGradient xlink:href="#b" id="h" x1="356.442" x2="484.796" y1="437.499" y2="256.18" gradientTransform="matrix(.18682 0 0 .14486 6.089 313.533)" gradientUnits="userSpaceOnUse"/><linearGradient id="a"><stop offset="0" style="stop-color:#fff;stop-opacity:1"/><stop offset="1" style="stop-color:#fff;stop-opacity:0"/></linearGradient><linearGradient id="g"><stop offset="0" style="stop-color:#0083cc;stop-opacity:1"/><stop offset="1" style="stop-color:#24a4cc;stop-opacity:1"/></linearGradient><linearGradient id="d"><stop offset="0" style="stop-color:#f0eb00;stop-opacity:1"/><stop offset="1" style="stop-color:#ff0;stop-opacity:1"/></linearGradient><linearGradient id="c"><stop offset="0" style="stop-color:#c10000;stop-opacity:1"/><stop offset="1" style="stop-color:#ff433e;stop-opacity:1"/></linearGradient><linearGradient id="f"><stop offset="0" style="stop-color:#ff44ab;stop-opacity:1"/><stop offset="1" style="stop-color:#f6c;stop-opacity:1"/></linearGradient><linearGradient id="b"><stop offset="0" style="stop-color:#ffd8c1;stop-opacity:1"/><stop offset="1" style="stop-color:#ffeded;stop-opacity:1"/></linearGradient></defs><path d="M199 10c0-5-4-9-9-9H10c-5 0-9 4-9 9v230c0 5 4 9 9 9h180c5 0 9-4 9-9V10z" style="fill:#fff;fill-opacity:1;fill-rule:evenodd;stroke:#000;stroke-width:2;stroke-linecap:butt;stroke-linejoin:miter;stroke-opacity:1;stroke-miterlimit:4;stroke-dasharray:none"/><text xml:space="preserve" x="21.646" y="38" style="font-size:32px;font-style:normal;font-variant:normal;font-weight:400;font-stretch:normal;text-align:center;line-height:125%;writing-mode:lr-tb;text-anchor:middle;fill:red;fill-opacity:1;stroke:red;stroke-width:1px;stroke-linecap:butt;stroke-linejoin:miter;stroke-opacity:1;font-family:Nimbus Roman No9 L"><tspan x="21.646" y="38" style="font-size:32px;font-style:normal;font-variant:normal;font-weight:400;font-stretch:normal;text-align:center;line-height:125%;writing-mode:lr-tb;text-anchor:middle;fill:#000;fill-opacity:1;stroke:#000;stroke-opacity:1;font-family:Nimbus Roman No9 L">Q</tspan></text><text xml:space="preserve" x="-176.985" y="-213.752" style="font-size:32px;font-style:normal;font-variant:normal;font-weight:400;font-stretch:normal;text-align:center;line-height:125%;writing-mode:lr-tb;text-anchor:middle;fill:red;fill-opacity:1;stroke:red;stroke-width:1px;stroke-linecap:butt;stroke-linejoin:miter;stroke-opacity:1;font-family:Nimbus Roman No9 L" transform="scale(-1)"><tspan x="-176.985" y="-213.752" style="font-size:32px;font-style:normal;font-variant:normal;font-weight:400;font-stretch:normal;text-align:center;line-height:125%;writing-mode:lr-tb;text-anchor:middle;fill:#000;fill-opacity:1;stroke:#000;stroke-opacity:1;font-family:Nimbus Roman No9 L">Q</tspan></text><path d="M175.516 201.2c-2.4 1.2-3.6 7.6 2 7.6s4.4-6.4 2-7.6c1.6 1.2 6.8 2.8 6.8-2.8s-7.2-5.2-7.6-.8h-.8s.4-4.4 1.6-6.4h-4c1.2 2 1.6 6.4 1.6 6.4h-.8c-.4-4.4-8-4.8-8 .8 0 4.8 5.6 4 7.2 2.8zM19.515 51.3c-2.4-1.2-3.6-7.6 2-7.6s4.4 6.4 2 7.6c1.6-1.2 6.8-2.8 6.8 2.8s-7.2 5.2-7.6.8h-.8s.4 4.4 1.6 6.4h-4c1.2-2 1.6-6.4 1.6-6.4h-.8c-.4 4.4-8 4.8-8-.8 0-4.8 5.6-4 7.2-2.8z" style="fill:#000;fill-opacity:1;fill-rule:evenodd;stroke:#000;stroke-width:1px;stroke-linecap:butt;stroke-linejoin:miter;stroke-opacity:1"/><path d="M40 27.5h120v195H40z" style="opacity:1;fill:#ccc;fill-opacity:1;fill-rule:nonzero;stroke:#000;stroke-width:2;stroke-linecap:round;stroke-linejoin:miter;stroke-miterlimit:4;stroke-dasharray:none;stroke-dashoffset:0;stroke-opacity:1"/><path d="M129.816 50c-6-3-9-19 5-19s11 16 5 19c4-3 17-7 17 7s-18 13-19 2h-2s1 11 4 16h-10c3-5 4-16 4-16h-2c-1 11-20 12-20-2 0-12 14-10 18-7zM61.815 200c-6 3-9 19 5 19s11-16 5-19c4 3 17 7 17-7s-18-13-19-2h-2s1-11 4-16h-10c3 5 4 16 4 16h-2c-1-11-20-12-20 2 0 12 14 10 18 7z" style="fill:#000;fill-opacity:1;fill-rule:evenodd;stroke:#000;stroke-width:1px;stroke-linecap:butt;stroke-linejoin:miter;stroke-opacity:1"/><path d="M72.088 321.754c.248 8.389-8.775-11.842-4.95 1.018-.178 4.945 5.745 12.646 1.643 15.655-5.49 3.201-9.415 8.682-11.281 14.719 6.724-.955 2.783 4.807 3.489 8.902.205 7.75 5.801 16.133 12.775 19.898-8.466 1.632-11.54 8.885-10.67 15.893-5.693 3.824-.008 8.984-.85 12.525 1.62 3.99 8.94 3.764 13.069 4.938 10.52.871 21.44.545 31.343-3.5-.824-9.425 4.237-22.266-8.289-28.644 6.224-.116 14.099-1.57 20.133-2.887-6.864-2.709-18.925-5.578-16.76-15.308 1.535-11.465-2.272-26.823-15.427-28.974 1.028-6.322 2.548-12.59 2.5-19.03-5.678 14.51-4.547-8.821-7.22 1.217-2.053 7.803-3.522-10.377-5.18 2.977-1.974-2.183-3.702-14.038-3.853-2.275l-.472 2.876z" style="fill:#000;fill-opacity:1;stroke:none;stroke-width:2;stroke-miterlimit:4;stroke-dashoffset:0;stroke-opacity:1" transform="translate(17.315 -243.723)"/><path d="M96.66 360.881c0 11.413-7.563 20.676-16.883 20.676s-16.884-9.263-16.884-20.676c0-11.413 7.564-20.676 16.884-20.676s16.884 9.263 16.884 20.676z" style="fill:url(#h);fill-opacity:1;stroke:none;stroke-width:2;stroke-miterlimit:4;stroke-dashoffset:0;stroke-opacity:1" transform="translate(17.315 -243.723)"/><path d="M76.737 382.71c-7.05 0-12.719 5.669-12.719 12.718v3.187c-1.177 1.834-2.333 3.554-2.094 4.97.177 1.044 1.093 1.892 2.094 2.624v4.125c9.38 4.65 29.532 4.894 40.625 0v-14.906c0-7.05-5.67-12.719-12.719-12.719H76.737z" style="fill:url(#i);fill-opacity:1;stroke:none;stroke-width:2;stroke-miterlimit:4;stroke-dashoffset:0;stroke-opacity:1" transform="translate(17.315 -243.723)"/><path d="M60.238 351.58s3.897-14.131 20.612-14.41c16.434-.28 20.82 13.882 18.967 29.832-1.713 8.5 11.9 12.785 11.9 12.785-4.852 1.577-16.451 3.014-23.693.516 6.288-4.722 1.046-27.348-2.38-30.284-4.268 3.388-21.033 3.095-25.406 1.56z" style="fill:#6d2b00;fill-opacity:1;fill-rule:evenodd;stroke:none;stroke-width:1.53712022px;stroke-linecap:butt;stroke-linejoin:miter;stroke-opacity:1" transform="translate(17.315 -243.723)"/><path d="M353 245.862c0 11.868-9.408 21.5-21 21.5s-21-9.632-21-21.5 9.408-21.5 21-21.5 21 9.632 21 21.5z" style="fill:#fff;fill-opacity:1;stroke:none;stroke-width:2;stroke-miterlimit:4;stroke-dashoffset:0;stroke-opacity:1" transform="matrix(.14486 0 0 .14486 45.618 80.93)"/><path d="M353 245.862c0 11.868-9.408 21.5-21 21.5s-21-9.632-21-21.5 9.408-21.5 21-21.5 21 9.632 21 21.5z" style="fill:#b67870;fill-opacity:1;stroke:none;stroke-width:2;stroke-miterlimit:4;stroke-dashoffset:0;stroke-opacity:1" transform="matrix(.08278 0 0 .12128 64.925 86.801)"/><path d="M353 245.862c0 11.868-9.408 21.5-21 21.5s-21-9.632-21-21.5 9.408-21.5 21-21.5 21 9.632 21 21.5z" style="fill:#000;fill-opacity:1;stroke:none;stroke-width:2;stroke-miterlimit:4;stroke-dashoffset:0;stroke-opacity:1" transform="matrix(.05173 0 0 .0977 74.579 92.816)"/><path d="m618 99.362 10-85 38 115s34-123 34-119 23 91 23 91l-18 70h-77l-10-72z" style="fill:url(#j);fill-opacity:1;fill-rule:evenodd;stroke:none;stroke-width:1px;stroke-linecap:butt;stroke-linejoin:miter;stroke-opacity:1" transform="matrix(.1198 0 0 .09705 15.912 74.152)"/><path d="m589 51.362 36 179c27 10.667 60 9.334 84 1l25-178-44 89-23-119-23 118-55-90z" style="fill:url(#k);fill-opacity:1;fill-rule:evenodd;stroke:none;stroke-width:1px;stroke-linecap:butt;stroke-linejoin:miter;stroke-opacity:1" transform="matrix(.1198 0 0 .09705 15.912 74.152)"/><path d="M353 245.862c0 11.868-9.408 21.5-21 21.5s-21-9.632-21-21.5 9.408-21.5 21-21.5 21 9.632 21 21.5z" style="fill:#fff;fill-opacity:1;stroke:none;stroke-width:2;stroke-miterlimit:4;stroke-dashoffset:0;stroke-opacity:1" transform="matrix(.14486 0 0 .14486 35.53 80.426)"/><path d="M353 245.862c0 11.868-9.408 21.5-21 21.5s-21-9.632-21-21.5 9.408-21.5 21-21.5 21 9.632 21 21.5z" style="fill:#b67870;fill-opacity:1;stroke:none;stroke-width:2;stroke-miterlimit:4;stroke-dashoffset:0;stroke-opacity:1" transform="matrix(.08278 0 0 .12128 54.836 86.296)"/><path d="M353 245.862c0 11.868-9.408 21.5-21 21.5s-21-9.632-21-21.5 9.408-21.5 21-21.5 21 9.632 21 21.5z" style="fill:#000;fill-opacity:1;stroke:none;stroke-width:2;stroke-miterlimit:4;stroke-dashoffset:0;stroke-opacity:1" transform="matrix(.05173 0 0 .0977 64.49 92.312)"/><path d="M68.227 372.92c3.53 4.413 6.935 2.9 11.727 0-4.287-.253-7.188-1.514-11.727 0z" style="fill:url(#l);fill-opacity:1;fill-rule:evenodd;stroke:none;stroke-width:1px;stroke-linecap:butt;stroke-linejoin:miter;stroke-opacity:1" transform="translate(17.315 -243.723)"/><path d="m90.85 398.574 1.263.124 1.371 14.512-3.465.25.83-14.886z" style="fill:#b30d95;fill-opacity:1;stroke:none;stroke-width:2;stroke-miterlimit:4;stroke-dashoffset:0;stroke-opacity:1" transform="translate(17.315 -243.723)"/><path d="m74.219 404.02-.813.563c2.044 2.961 3.742 5.674 5.887 6.057 2.146.383 4.673-1.55 6.707-2.463l-.406-.906c-1.956.878-3.844 1.423-5.688 1.093-1.844-.329-3.741-1.523-5.687-4.343z" style="fill:#b30d95;fill-opacity:1;fill-rule:evenodd;stroke:none;stroke-width:1px;stroke-linecap:butt;stroke-linejoin:miter;stroke-opacity:1" transform="translate(17.315 -243.723)"/><path d="M69.888 362.473c-.792 1.287-1.734 2.49-1.57 3.463.164.972 1.442 1.674 2.232 2.235l.33-.478c-.694-.493-1.15-1.13-1.286-1.93-.135-.8.05-1.792.79-2.996l-.496-.294z" style="fill:#000;fill-opacity:1;fill-rule:evenodd;stroke:none;stroke-width:1px;stroke-linecap:butt;stroke-linejoin:miter;stroke-opacity:1" transform="translate(17.315 -243.723)"/><path d="M74.724 383.245s-6.318 11.774-4.882 20.39c5.456-9.764 12.635-19.241 16.656-20.964-1.436-.574-10.338-.287-11.774.574z" style="fill:url(#m);fill-opacity:1;fill-rule:evenodd;stroke:none;stroke-width:1px;stroke-linecap:butt;stroke-linejoin:miter;stroke-opacity:1" transform="translate(17.315 -243.723)"/><path d="M61.836 403.507c.28 1.654 2.451 2.847 3.794 3.8l.327-.269c-1.181-.838-1.764-.956-1.994-2.316-.23-1.359-2.407-2.868-2.127-1.215z" style="fill:#b30d95;fill-opacity:1;fill-rule:evenodd;stroke:none;stroke-width:1px;stroke-linecap:butt;stroke-linejoin:miter;stroke-opacity:1" transform="translate(17.315 -243.723)"/><path d="M82.469 318.899c0-.243-1.37 3.727-2.563 7.187l-1.406-5.937-1.594 6.656-3.062-7.531-1.219 8.187-3.469-4.594 3.906 15.782c-10.095 3.595-12.812 12.937-12.812 12.937.89.312 2.514.53 4.219.719a24.467 24.467 0 0 0-1.563 8.594c0 11.413 7.555 20.656 16.875 20.656 3.864 0 7.373-1.666 10.219-4.344-.467 1.304-1.066 2.416-1.969 3.094 7.242 2.498 18.835 1.077 23.688-.5 0 0-13.62-4.311-11.906-12.813 1.722-14.82-2.071-27.917-15.782-29.5l2.5-14.437-1.844 3c-.683-2.107-2.218-6.841-2.218-7.156zM76.75 382.71a12.687 12.687 0 0 0-12.719 12.719v3.187c-1.177 1.834-2.333 3.554-2.094 4.969.177 1.044 1.093 1.892 2.094 2.625v4.156c6.012 2.98 16.36 3.926 26 3.094 1.149-.1 2.32-.094 3.438-.25 4.134-.579 8.052-1.46 11.187-2.844V395.43c0-7.05-5.7-12.719-12.75-12.719H76.75z" style="fill:url(#n);fill-opacity:1;stroke:none;stroke-width:2;stroke-miterlimit:4;stroke-dashoffset:0;stroke-opacity:1" transform="translate(17.315 -243.723)"/></svg>