<svg xmlns="http://www.w3.org/2000/svg" xmlns:xlink="http://www.w3.org/1999/xlink" width="200" height="250" version="1.0"><defs><linearGradient xlink:href="#a" id="o" x1="688.304" x2="361.498" y1="-31.93" y2="346.667" gradientTransform="matrix(.18682 0 0 .14486 -49.62 316.673)" gradientUnits="userSpaceOnUse"/><linearGradient xlink:href="#b" id="n" x1="36.313" x2="43.598" y1="116.761" y2="110.928" gradientTransform="translate(-16.307 286.413)" gradientUnits="userSpaceOnUse"/><linearGradient xlink:href="#b" id="m" x1="58.248" x2="61.035" y1="104.916" y2="103.148" gradientTransform="translate(-19.627 283.294)" gradientUnits="userSpaceOnUse"/><linearGradient xlink:href="#b" id="l" x1="32.969" x2="60.723" y1="63.942" y2="56.605" gradientTransform="translate(-19.627 283.294)" gradientUnits="userSpaceOnUse"/><linearGradient xlink:href="#c" id="k" x1="32.464" x2="60" y1="58.34" y2="51.181" gradientTransform="translate(-19.627 283.294)" gradientUnits="userSpaceOnUse"/><linearGradient xlink:href="#d" id="j" x1="294.246" x2="312.092" y1="346.327" y2="322.139" gradientTransform="matrix(.14486 0 0 .14486 -26.527 329.383)" gradientUnits="userSpaceOnUse"/><linearGradient xlink:href="#e" id="i" x1="298.986" x2="449.323" y1="540.539" y2="415.539" gradientTransform="matrix(.14486 0 0 .14486 -26.925 326.69)" gradientUnits="userSpaceOnUse"/><linearGradient xlink:href="#b" id="h" x1="25.75" x2="32.217" y1="103.131" y2="101.982" gradientTransform="translate(-19.627 283.294)" gradientUnits="userSpaceOnUse"/><linearGradient xlink:href="#f" id="g" x1="356.442" x2="484.796" y1="437.499" y2="256.18" gradientTransform="matrix(.18682 0 0 .14486 -49.32 316.05)" gradientUnits="userSpaceOnUse"/><linearGradient id="c"><stop offset="0" style="stop-color:#f0a700;stop-opacity:1"/><stop offset="1" style="stop-color:#ffed00;stop-opacity:1"/></linearGradient><linearGradient id="a"><stop offset="0" style="stop-color:#fff;stop-opacity:1"/><stop offset="1" style="stop-color:#fff;stop-opacity:0"/></linearGradient><linearGradient id="b"><stop offset="0" style="stop-color:#f0eb00;stop-opacity:1"/><stop offset="1" style="stop-color:#ff0;stop-opacity:1"/></linearGradient><linearGradient id="d"><stop offset="0" style="stop-color:#c10000;stop-opacity:1"/><stop offset="1" style="stop-color:#ff433e;stop-opacity:1"/></linearGradient><linearGradient id="e"><stop offset="0" style="stop-color:#ff44ab;stop-opacity:1"/><stop offset="1" style="stop-color:#f6c;stop-opacity:1"/></linearGradient><linearGradient id="f"><stop offset="0" style="stop-color:#ffd8c1;stop-opacity:1"/><stop offset="1" style="stop-color:#ffeded;stop-opacity:1"/></linearGradient></defs><path d="M199 10c0-5-4-9-9-9H10c-5 0-9 4-9 9v230c0 5 4 9 9 9h180c5 0 9-4 9-9V10z" style="fill:#fff;fill-opacity:1;fill-rule:evenodd;stroke:#000;stroke-width:2;stroke-linecap:butt;stroke-linejoin:miter;stroke-opacity:1;stroke-miterlimit:4;stroke-dasharray:none"/><text xml:space="preserve" x="21.646" y="38" style="font-size:32px;font-style:normal;font-variant:normal;font-weight:400;font-stretch:normal;text-align:center;line-height:125%;writing-mode:lr-tb;text-anchor:middle;fill:red;fill-opacity:1;stroke:red;stroke-width:1px;stroke-linecap:butt;stroke-linejoin:miter;stroke-opacity:1;font-family:Nimbus Roman No9 L"><tspan x="21.646" y="38" style="font-size:32px;font-style:normal;font-variant:normal;font-weight:400;font-stretch:normal;text-align:center;line-height:125%;writing-mode:lr-tb;text-anchor:middle;fill:#000;fill-opacity:1;stroke:#000;stroke-opacity:1;font-family:Nimbus Roman No9 L">K</tspan></text><text xml:space="preserve" x="-176.985" y="-213.752" style="font-size:32px;font-style:normal;font-variant:normal;font-weight:400;font-stretch:normal;text-align:center;line-height:125%;writing-mode:lr-tb;text-anchor:middle;fill:red;fill-opacity:1;stroke:red;stroke-width:1px;stroke-linecap:butt;stroke-linejoin:miter;stroke-opacity:1;font-family:Nimbus Roman No9 L" transform="scale(-1)"><tspan x="-176.985" y="-213.752" style="font-size:32px;font-style:normal;font-variant:normal;font-weight:400;font-stretch:normal;text-align:center;line-height:125%;writing-mode:lr-tb;text-anchor:middle;fill:#000;fill-opacity:1;stroke:#000;stroke-opacity:1;font-family:Nimbus Roman No9 L">K</tspan></text><path d="M175.516 201.2c-2.4 1.2-3.6 7.6 2 7.6s4.4-6.4 2-7.6c1.6 1.2 6.8 2.8 6.8-2.8s-7.2-5.2-7.6-.8h-.8s.4-4.4 1.6-6.4h-4c1.2 2 1.6 6.4 1.6 6.4h-.8c-.4-4.4-8-4.8-8 .8 0 4.8 5.6 4 7.2 2.8zM19.515 51.3c-2.4-1.2-3.6-7.6 2-7.6s4.4 6.4 2 7.6c1.6-1.2 6.8-2.8 6.8 2.8s-7.2 5.2-7.6.8h-.8s.4 4.4 1.6 6.4h-4c1.2-2 1.6-6.4 1.6-6.4h-.8c-.4 4.4-8 4.8-8-.8 0-4.8 5.6-4 7.2-2.8z" style="fill:#000;fill-opacity:1;fill-rule:evenodd;stroke:#000;stroke-width:1px;stroke-linecap:butt;stroke-linejoin:miter;stroke-opacity:1"/><path d="M40 27.5h120v195H40z" style="opacity:1;fill:#ccc;fill-opacity:1;fill-rule:nonzero;stroke:#000;stroke-width:2;stroke-linecap:round;stroke-linejoin:miter;stroke-miterlimit:4;stroke-dasharray:none;stroke-dashoffset:0;stroke-opacity:1"/><path d="M129.816 50c-6-3-9-19 5-19s11 16 5 19c4-3 17-7 17 7s-18 13-19 2h-2s1 11 4 16h-10c3-5 4-16 4-16h-2c-1 11-20 12-20-2 0-12 14-10 18-7zM61.815 200c-6 3-9 19 5 19s11-16 5-19c4 3 17 7 17-7s-18-13-19-2h-2s1-11 4-16h-10c3 5 4 16 4 16h-2c-1-11-20-12-20 2 0 12 14 10 18 7z" style="fill:#000;fill-opacity:1;fill-rule:evenodd;stroke:#000;stroke-width:1px;stroke-linecap:butt;stroke-linejoin:miter;stroke-opacity:1"/><path d="M22.869 329.589c-1.984-1.622-3.418-2.63-5.778-5.119-1.766 7.185-4.003 6.155-7.028 3.611-3.019-3.035-2.781 11.104-8.603-1.836-1.678.23 1.738 10.88 2.201 15.02 3.47 4.894-2.011 11.096-.275 14.597 5.737-.376.64 6.226 2.358 9.76.373 4.68 2.021 8.457 2.66 12.734 9.696 4.432-8.42 7.463-4.22 11.013.794 3.266-1.56 9.17-.56 13.581-.713 6-.628 11.414 6.75 11.688 12.78 2.479 25.816 2.393 37.874-2.344.135-6.988-.095-14.907-.218-21.344 3.164-3.864-7.896-6.498-10.38-9.982 3.527-4.321 2.31-12.724 9.464-13.327.76-6.259-1.413-13.959-4.74-19.847 1.07-7.66 2.342-15.295 3.062-23-7.17 14.794-4.284-3.014-7.451 4.013-2.05 2.307-3.298-.73-4.604-.61-1.296-5.818-3.648 7.244-5.383-3.653-2.244 9.14-2.866-6.302-4.453 3.072l-.676 1.973z" style="fill:#000;fill-opacity:1;stroke:none;stroke-width:2;stroke-miterlimit:4;stroke-dashoffset:0;stroke-opacity:1" transform="matrix(1.00012 0 0 1 75.25 -245.25)"/><path d="M41.252 363.397c0 11.413-7.564 20.676-16.883 20.676-9.32 0-16.884-9.263-16.884-20.676 0-11.413 7.564-20.676 16.884-20.676s16.883 9.263 16.883 20.676z" style="fill:url(#g);fill-opacity:1;stroke:none;stroke-width:2;stroke-miterlimit:4;stroke-dashoffset:0;stroke-opacity:1" transform="matrix(1.00012 0 0 1 75.25 -245.25)"/><path d="m7.873 389.544-2.045-1.427 6.78-5.53 1.515 3.207s-5.919 4.019-6.25 3.75z" style="fill:url(#h);fill-opacity:1;fill-rule:evenodd;stroke:none;stroke-width:1px;stroke-linecap:butt;stroke-linejoin:miter;stroke-opacity:1" transform="matrix(1.00012 0 0 1 75.25 -245.25)"/><path d="M18.343 383.211a12.698 12.698 0 0 0-12.725 12.725v14.93c9.38 4.649 29.527 4.893 40.62 0v-14.93a12.698 12.698 0 0 0-12.725-12.725h-15.17z" style="fill:url(#i);fill-opacity:1;stroke:none;stroke-width:2;stroke-miterlimit:4;stroke-dashoffset:0;stroke-opacity:1" transform="matrix(1.00012 0 0 1 75.25 -245.25)"/><path d="M4.83 354.096s1.698-14.375 20.612-14.41c19.976.819 19.997 26.495 19.997 26.495-4.853 1.577-3.505 3.258-10.747.76.791-5.7-.5-9.88-3.925-12.815-4.27 2.238-21.564 1.504-25.937-.03z" style="fill:#6d2b00;fill-opacity:1;fill-rule:evenodd;stroke:none;stroke-width:1.53712022px;stroke-linecap:butt;stroke-linejoin:miter;stroke-opacity:1" transform="matrix(1.00012 0 0 1 75.25 -245.25)"/><path d="M353 245.862c0 11.868-9.408 21.5-21 21.5s-21-9.632-21-21.5 9.408-21.5 21-21.5 21 9.632 21 21.5z" style="fill:#fff;fill-opacity:1;stroke:none;stroke-width:2;stroke-miterlimit:4;stroke-dashoffset:0;stroke-opacity:1" transform="matrix(.14487 0 0 .0979 47.942 94.275)"/><path d="M353 245.862c0 11.868-9.408 21.5-21 21.5s-21-9.632-21-21.5 9.408-21.5 21-21.5 21 9.632 21 21.5z" style="fill:#b67870;fill-opacity:1;stroke:none;stroke-width:2;stroke-miterlimit:4;stroke-dashoffset:0;stroke-opacity:1" transform="matrix(.08279 0 0 .08197 67.252 98.243)"/><path d="M353 245.862c0 11.868-9.408 21.5-21 21.5s-21-9.632-21-21.5 9.408-21.5 21-21.5 21 9.632 21 21.5z" style="fill:#000;fill-opacity:1;stroke:none;stroke-width:2;stroke-miterlimit:4;stroke-dashoffset:0;stroke-opacity:1" transform="matrix(.05174 0 0 .06603 76.906 102.308)"/><path d="M353 245.862c0 11.868-9.408 21.5-21 21.5s-21-9.632-21-21.5 9.408-21.5 21-21.5 21 9.632 21 21.5z" style="fill:#fff;fill-opacity:1;stroke:none;stroke-width:2;stroke-miterlimit:4;stroke-dashoffset:0;stroke-opacity:1" transform="matrix(.14487 0 0 .0979 37.852 93.934)"/><path d="M353 245.862c0 11.868-9.408 21.5-21 21.5s-21-9.632-21-21.5 9.408-21.5 21-21.5 21 9.632 21 21.5z" style="fill:#b67870;fill-opacity:1;stroke:none;stroke-width:2;stroke-miterlimit:4;stroke-dashoffset:0;stroke-opacity:1" transform="matrix(.08279 0 0 .08197 57.162 97.902)"/><path d="M353 245.862c0 11.868-9.408 21.5-21 21.5s-21-9.632-21-21.5 9.408-21.5 21-21.5 21 9.632 21 21.5z" style="fill:#000;fill-opacity:1;stroke:none;stroke-width:2;stroke-miterlimit:4;stroke-dashoffset:0;stroke-opacity:1" transform="matrix(.05174 0 0 .06603 66.817 101.967)"/><path d="M12.818 376.779c2.92.139 7.302.336 11.728 0-4.654-1.718-7.92-2.246-11.728 0z" style="fill:url(#j);fill-opacity:1;fill-rule:evenodd;stroke:none;stroke-width:1px;stroke-linecap:butt;stroke-linejoin:miter;stroke-opacity:1" transform="matrix(1.00012 0 0 1 75.25 -245.25)"/><path d="m32.44 399.09 1.264.124 1.372 14.512-3.465.25.83-14.886z" style="fill:#b30d95;fill-opacity:1;stroke:none;stroke-width:2;stroke-miterlimit:4;stroke-dashoffset:0;stroke-opacity:1" transform="matrix(1.00012 0 0 1 75.25 -245.25)"/><path d="M14.48 364.989c-.792 1.287-1.945 3.402-1.781 4.375.164.972 1.652.762 2.442 1.323l.331-.478c-.695-.493-1.783-.008-1.918-.808s.681-2.914 1.422-4.118l-.496-.294z" style="fill:#000;fill-opacity:1;fill-rule:evenodd;stroke:none;stroke-width:1px;stroke-linecap:butt;stroke-linejoin:miter;stroke-opacity:1" transform="matrix(1.00012 0 0 1 75.25 -245.25)"/><path d="M16.215 377.573c1.104 2.336-.668 2.358-1.458 2.73-.614-.46-1.93-1.829-2.337-2.785-.129 5.307 1.724 8.204 3.068 9.67 1.343 1.465 9.282 2.564 13.557 0 4.275-2.565 13.239-11.337 8.362-18.518-.668.464-1.884.363-2.744.197.122 1.588-2.019 6.19-5.927 7.9-3.908 1.71-6.723 2.123-7.752 3.656-2.011.06-3.134-.749-2.222-2.832-.49.16-2.006-.021-2.547-.018zM17.134 372.209s-7.085 1.824-7.505 3.087c-.421 1.262 1.052 2.735 1.052 2.735s4.63-3.858 6.594-3.788c-.14-.49.07-1.122-.14-2.034z" style="fill:#6d2b00;fill-opacity:1;fill-rule:evenodd;stroke:none;stroke-width:1px;stroke-linecap:butt;stroke-linejoin:miter;stroke-opacity:1" transform="matrix(1.00012 0 0 1 75.25 -245.25)"/><path d="M17.673 372.23s7.408.115 8.188 1.194c.78 1.079-.186 2.925-.186 2.925s-5.742-2.878-7.595-2.223c-.013-.51-.335-.963-.407-1.896z" style="fill:#6d2b00;fill-opacity:1;fill-rule:evenodd;stroke:none;stroke-width:1px;stroke-linecap:butt;stroke-linejoin:miter;stroke-opacity:1" transform="matrix(1.00012 0 0 1 75.25 -245.25)"/><path d="m6.447 336.678 2.588-6.604 5.088 6.97 3.574-8.738 4.457 8.548s3.131-8.84 3.131-8.164c0 .677 3.295 9.225 3.295 9.225l3.75-8.194 2.49 8.106 4.303-7.033 1.25 6.25v5s-27.5 1.25-30 0-4.013-5.222-3.926-5.366z" style="fill:url(#k);fill-opacity:1;fill-rule:evenodd;stroke:none;stroke-width:1px;stroke-linecap:butt;stroke-linejoin:miter;stroke-opacity:1" transform="matrix(1.00012 0 0 1 75.25 -245.25)"/><path d="M7.155 348.224c10.076 2.387 22.627 2.475 33.146 0l2.386-16.528-4.596 6.54-2.828-7.424-3.536 7.248-3.624-8.309-3.27 8.22-3.713-8.043-3.27 8.75-4.861-7.601-3.624 7.867-5.569-6.895s3.094 15.822 3.359 16.175z" style="fill:url(#l);fill-opacity:1;fill-rule:evenodd;stroke:none;stroke-width:1px;stroke-linecap:butt;stroke-linejoin:miter;stroke-opacity:1" transform="matrix(1.00012 0 0 1 75.25 -245.25)"/><path d="M37.649 382.784c-.672.51-2.917 2.387-2.917 2.387l9.391 6.873 2.5-2.5-8.974-6.76z" style="fill:url(#m);fill-opacity:1;fill-rule:evenodd;stroke:none;stroke-width:1px;stroke-linecap:butt;stroke-linejoin:miter;stroke-opacity:1" transform="matrix(1.00012 0 0 1 75.25 -245.25)"/><path d="m23.533 399.852-6.942-7.947h17.405l-10.463 7.947z" style="fill:#ff8900;fill-opacity:1;fill-rule:evenodd;stroke:none;stroke-width:1px;stroke-linecap:butt;stroke-linejoin:miter;stroke-opacity:1" transform="matrix(1.00012 0 0 1 75.25 -245.25)"/><path d="m21.258 394.013-2.754 3.397 3.94 2.753-4.28 3.064 2.853 2.832 2.893-4.924 2.99 4.823 3.043-3.295-5-2.5 4.723-3.22-3.12-2.753-2.548 4.988-2.74-5.165z" style="fill:url(#n);fill-opacity:1;fill-rule:evenodd;stroke:none;stroke-width:1px;stroke-linecap:butt;stroke-linejoin:miter;stroke-opacity:1" transform="matrix(1.00012 0 0 1 75.25 -245.25)"/><path d="m17.386 328.918-2.532 6.187-2.156-3.406-1.25 2.719-2.719-3.719-2.218 5.688-3-3.72s3.078 15.835 3.343 16.188c.01.003.022-.002.032 0-1.946 3.096-2.344 5.875-2.344 5.875.867.305 2.506.557 4.187.782a24.345 24.345 0 0 0-1.53 8.5c0 4.217 1.04 8.135 2.812 11.406-.24.173-.634.34-.688.5-.42 1.263 1.063 2.75 1.063 2.75s.787-.563 1.187-.875c.199.27.353.587.563.844.003 2.65.517 4.604 1.187 6.125-.079.031-.172.03-.25.062l-.75-1.625-6.781 5.531 1.844 1.313c-1.185 1.934-2.063 4.088-2.063 6.531v14.906c6.012 2.98 16.36 3.927 26 3.094v.031l3.438-.25v-.03c4.134-.58 8.052-1.461 11.187-2.845v-14.906c0-1.778-.378-3.466-1.031-5l1.406-1.406-8.969-6.75c-.237.18-.57.466-1.03.844a12.898 12.898 0 0 0-2.938-.407c2.438-2.534 4.71-5.749 5.062-9.125a23.105 23.105 0 0 0 2.031-6.03c1.255-.273 2.128-1.085 4.657-1.907 0 0-.041-10.27-5.125-18.031l2.375-16.438-2.625 3.75-.938-4.656-2.375 3.906-1.5-3.875-1.594 3.25-1.312-4.344-2.188 4.782-2.062-4.75-1.281 3.218c-.761-2.063-1.532-3.967-1.532-4.28 0-.465-1.23 3.026-2.156 5.593l-2-4.375-1.094 2.875-2.343-4.5z" style="fill:url(#o);fill-opacity:1;stroke:none;stroke-width:2;stroke-miterlimit:4;stroke-dashoffset:0;stroke-opacity:1" transform="matrix(1.00012 0 0 1 75.25 -245.25)"/></svg>