<svg xmlns="http://www.w3.org/2000/svg" width="200" height="250" version="1.0"><path d="M199 10c0-5-4-9-9-9H10c-5 0-9 4-9 9v230c0 5 4 9 9 9h180c5 0 9-4 9-9V10z" style="fill:#fff;fill-opacity:1;fill-rule:evenodd;stroke:#000;stroke-width:2;stroke-linecap:butt;stroke-linejoin:miter;stroke-opacity:1;stroke-miterlimit:4;stroke-dasharray:none"/><text xml:space="preserve" x="21.22" y="40" style="font-size:32px;font-style:normal;font-variant:normal;font-weight:400;font-stretch:normal;text-align:center;line-height:125%;writing-mode:lr-tb;text-anchor:middle;fill:red;fill-opacity:1;stroke:red;stroke-width:1px;stroke-linecap:butt;stroke-linejoin:miter;stroke-opacity:1;font-family:Nimbus Roman No9 L"><tspan x="21.22" y="40" style="font-size:32px;font-style:normal;font-variant:normal;font-weight:400;font-stretch:normal;text-align:center;line-height:125%;writing-mode:lr-tb;text-anchor:middle;fill:red;fill-opacity:1;stroke:red;stroke-opacity:1;font-family:Nimbus Roman No9 L">3</tspan></text><path d="M177.315 205.4c0 1.2-2 3.6-4 3.6s-4-1.6-4-4.4c0-4.4 6.4-11.6 8-13.6 1.6 2 8 9.2 8 13.6 0 2.8-2 4.4-4 4.4-2.01 0-4-2.4-4-3.6zM21.316 47.1c0-1.2-2-3.6-4-3.6s-4 1.6-4 4.4c0 4.4 6.4 11.6 8 13.6 1.6-2 8-9.2 8-13.6 0-2.8-2-4.4-4-4.4-2.01 0-4 2.4-4 3.6z" style="fill:red;fill-opacity:1;fill-rule:evenodd;stroke:red;stroke-width:1px;stroke-linecap:butt;stroke-linejoin:miter;stroke-opacity:1"/><text xml:space="preserve" x="-177.411" y="-213.752" style="font-size:32px;font-style:normal;font-variant:normal;font-weight:400;font-stretch:normal;text-align:center;line-height:125%;writing-mode:lr-tb;text-anchor:middle;fill:red;fill-opacity:1;stroke:red;stroke-width:1px;stroke-linecap:butt;stroke-linejoin:miter;stroke-opacity:1;font-family:Nimbus Roman No9 L" transform="scale(-1)"><tspan x="-177.411" y="-213.752" style="font-size:32px;font-style:normal;font-variant:normal;font-weight:400;font-stretch:normal;text-align:center;line-height:125%;writing-mode:lr-tb;text-anchor:middle;fill:red;fill-opacity:1;stroke:red;stroke-opacity:1;font-family:Nimbus Roman No9 L">3</tspan></text><path d="M99.5 33.5c0-3-5-9-10-9s-10 4-10 11c0 11 16 29 20 34 4-5 20-23 20-34 0-7-5-11-10-11-5.025 0-10 6-10 9zM100.5 113.25c0-3-5-9-10-9s-10 4-10 11c0 11 16 29 20 34 4-5 20-23 20-34 0-7-5-11-10-11-5.025 0-10 6-10 9zM99.5 220c0 3-5 9-10 9s-10-4-10-11c0-11 16-29 20-34 4 5 20 23 20 34 0 7-5 11-10 11-5.025 0-10-6-10-9z" style="fill:red;fill-opacity:1;fill-rule:evenodd;stroke:red;stroke-width:1px;stroke-linecap:butt;stroke-linejoin:miter;stroke-opacity:1"/></svg>