<svg xmlns="http://www.w3.org/2000/svg" xmlns:xlink="http://www.w3.org/1999/xlink" width="200" height="250" version="1.0"><defs><linearGradient id="d"><stop offset="0" style="stop-color:#008200;stop-opacity:1"/><stop offset="1" style="stop-color:#00d000;stop-opacity:1"/></linearGradient><linearGradient id="e"><stop offset="0" style="stop-color:#f0a700;stop-opacity:1"/><stop offset="1" style="stop-color:#ffed00;stop-opacity:1"/></linearGradient><linearGradient id="a"><stop offset="0" style="stop-color:#fff;stop-opacity:1"/><stop offset="1" style="stop-color:#fff;stop-opacity:0"/></linearGradient><linearGradient id="c"><stop offset="0" style="stop-color:#0083cc;stop-opacity:1"/><stop offset="1" style="stop-color:#24a4cc;stop-opacity:1"/></linearGradient><linearGradient id="b"><stop offset="0" style="stop-color:#f0eb00;stop-opacity:1"/><stop offset="1" style="stop-color:#ff0;stop-opacity:1"/></linearGradient><linearGradient id="f"><stop offset="0" style="stop-color:#c10000;stop-opacity:1"/><stop offset="1" style="stop-color:#ff433e;stop-opacity:1"/></linearGradient><linearGradient id="h"><stop offset="0" style="stop-color:#ff44ab;stop-opacity:1"/><stop offset="1" style="stop-color:#f6c;stop-opacity:1"/></linearGradient><linearGradient id="g"><stop offset="0" style="stop-color:#ffd8c1;stop-opacity:1"/><stop offset="1" style="stop-color:#ffeded;stop-opacity:1"/></linearGradient><linearGradient xlink:href="#g" id="i" x1="356.442" x2="484.796" y1="437.499" y2="256.18" gradientTransform="matrix(.18682 0 0 .14486 74.3 109.475)" gradientUnits="userSpaceOnUse"/><linearGradient xlink:href="#c" id="j" x1="298.986" x2="449.323" y1="540.539" y2="415.539" gradientTransform="matrix(.14486 0 0 .14486 99.215 121.455)" gradientUnits="userSpaceOnUse"/><linearGradient xlink:href="#e" id="k" x1="111.392" x2="136.652" y1="198.455" y2="177.032" gradientTransform="scale(1.25544 .79653)" gradientUnits="userSpaceOnUse"/><linearGradient xlink:href="#f" id="l" x1="294.246" x2="312.092" y1="346.327" y2="322.139" gradientTransform="matrix(.14486 0 0 .14486 97.094 122.808)" gradientUnits="userSpaceOnUse"/><linearGradient xlink:href="#e" id="m" x1="108.991" x2="112.703" y1="209.416" y2="205.041" gradientTransform="scale(1.23008 .81295)" gradientUnits="userSpaceOnUse"/><linearGradient xlink:href="#e" id="n" x1="106.41" x2="109.256" y1="231.758" y2="228.153" gradientTransform="scale(1.36324 .73355)" gradientUnits="userSpaceOnUse"/><linearGradient xlink:href="#b" id="o" x1="101.393" x2="105.545" y1="124.161" y2="120.973" gradientTransform="translate(43.646 73.72)" gradientUnits="userSpaceOnUse"/><linearGradient xlink:href="#d" id="p" x1="98.818" x2="112.891" y1="108.764" y2="103.334" gradientTransform="translate(39.501 74.756)" gradientUnits="userSpaceOnUse"/><linearGradient xlink:href="#b" id="q" x1="103.563" x2="111.883" y1="65.109" y2="62.671" gradientTransform="translate(40.119 73.845)" gradientUnits="userSpaceOnUse"/><linearGradient xlink:href="#c" id="r" x1="93.5" x2="117.139" y1="62.938" y2="57.702" gradientTransform="translate(43.646 73.72)" gradientUnits="userSpaceOnUse"/><linearGradient xlink:href="#b" id="s" x1="104.75" x2="109.5" y1="57.469" y2="55.781" gradientUnits="userSpaceOnUse"/><linearGradient xlink:href="#a" id="t" x1="652.295" x2="410.906" y1="77.395" y2="344.417" gradientTransform="matrix(.18685 0 0 .14486 74.296 109.487)" gradientUnits="userSpaceOnUse"/></defs><path d="M199 10c0-5-4-9-9-9H10c-5 0-9 4-9 9v230c0 5 4 9 9 9h180c5 0 9-4 9-9V10z" style="fill:#fff;fill-opacity:1;fill-rule:evenodd;stroke:#000;stroke-width:2;stroke-linecap:butt;stroke-linejoin:miter;stroke-opacity:1;stroke-miterlimit:4;stroke-dasharray:none"/><text xml:space="preserve" x="21.646" y="38" style="font-size:32px;font-style:normal;font-variant:normal;font-weight:400;font-stretch:normal;text-align:center;line-height:125%;writing-mode:lr-tb;text-anchor:middle;fill:red;fill-opacity:1;stroke:red;stroke-width:1px;stroke-linecap:butt;stroke-linejoin:miter;stroke-opacity:1;font-family:Nimbus Roman No9 L"><tspan x="21.646" y="38" style="font-size:32px;font-style:normal;font-variant:normal;font-weight:400;font-stretch:normal;text-align:center;line-height:125%;writing-mode:lr-tb;text-anchor:middle;fill:red;fill-opacity:1;stroke:red;stroke-opacity:1;font-family:Nimbus Roman No9 L">J</tspan></text><text xml:space="preserve" x="-176.985" y="-213.752" style="font-size:32px;font-style:normal;font-variant:normal;font-weight:400;font-stretch:normal;text-align:center;line-height:125%;writing-mode:lr-tb;text-anchor:middle;fill:red;fill-opacity:1;stroke:red;stroke-width:1px;stroke-linecap:butt;stroke-linejoin:miter;stroke-opacity:1;font-family:Nimbus Roman No9 L" transform="scale(-1)"><tspan x="-176.985" y="-213.752" style="font-size:32px;font-style:normal;font-variant:normal;font-weight:400;font-stretch:normal;text-align:center;line-height:125%;writing-mode:lr-tb;text-anchor:middle;fill:red;fill-opacity:1;stroke:red;stroke-opacity:1;font-family:Nimbus Roman No9 L">J</tspan></text><path d="M40 27.5h120v195H40z" style="opacity:1;fill:#f99;fill-opacity:1;fill-rule:nonzero;stroke:red;stroke-width:2;stroke-linecap:round;stroke-linejoin:miter;stroke-miterlimit:4;stroke-dasharray:none;stroke-dashoffset:0;stroke-opacity:1"/><path d="m116.316 52.5 18-22 18 21-18 24-18-23zM48.315 196.5l18-22 18 21-18 24-18-23zM170.115 199.8l7.2-8.8 7.2 8.4-7.2 9.6-7.2-9.2zM14.116 52.3l7.2-8.8 7.2 8.4-7.2 9.6-7.2-9.2z" style="fill:red;fill-opacity:1;fill-rule:evenodd;stroke:red;stroke-width:1px;stroke-linecap:butt;stroke-linejoin:miter;stroke-opacity:1"/><path d="M147.53 125.563c-5.973 3.774-13.47-3.165-17.454 4.88-3.495 4.782 7.53 6.173.57 10.424-4.756 5.124-4.477 7.38-.37 8.007-1.181 5.664-.32 15.171 2.275 20.356-3.212 3.903-.804 2.562 3.553 3.376-1.354 2.154-.577 10.05-5.208 12.489-2.33 7.021-.583 14.642-1.125 21.906 11.275 4.748 24.625 5.287 35.403 2.755 4.739-.99 10.146-1.369 9.191-8.13.284-8.426 1.283-19.518-7.91-23.83-5.373-.753-7.164-4.388-3.04-9.55 3.063-8.358 6.44-4.861 11.143-6.975 4.901-1.311-7.001-4.54-5.43-9.977-1.522-4.254-3.383-9.258-6.43-12.711 7.68-.69 8.503-8.698 2.26-10.332-6.186-4.122-9.836 2.914-14.544-2.375-.78-.013-2.102-.504-2.885-.313z" style="fill:#000;fill-opacity:1;stroke:none;stroke-width:2;stroke-miterlimit:4;stroke-dashoffset:0;stroke-opacity:1" transform="matrix(1 0 0 1 -49.558 -44.756)"/><path d="M164.873 156.823c0 11.413-7.564 20.676-16.884 20.676s-16.883-9.263-16.883-20.676c0-11.414 7.563-20.677 16.883-20.677s16.884 9.263 16.884 20.677z" style="fill:url(#i);fill-opacity:1;stroke:none;stroke-width:2;stroke-miterlimit:4;stroke-dashoffset:0;stroke-opacity:1" transform="matrix(1 0 0 1 -49.558 -44.756)"/><path d="M144.482 177.977a12.698 12.698 0 0 0-12.724 12.725v14.929c9.38 4.649 29.526 4.894 40.619 0V190.7a12.698 12.698 0 0 0-12.725-12.724h-15.17z" style="fill:url(#j);fill-opacity:1;stroke:none;stroke-width:2;stroke-miterlimit:4;stroke-dashoffset:0;stroke-opacity:1" transform="matrix(1 0 0 1 -49.558 -44.756)"/><path d="M129.275 147.191c2.527-4.528 5.055-13.18 19.128-13.09 21.84.64 16.63 23.381 24.45 25.835-4.853 1.578-7.299 2.929-14.54.43.791-5.699-.5-9.878-3.926-12.815-4.269 2.24-20.739 1.175-25.112-.36z" style="fill:url(#k);fill-opacity:1;fill-rule:evenodd;stroke:none;stroke-width:1.53712022px;stroke-linecap:butt;stroke-linejoin:miter;stroke-opacity:1" transform="matrix(1 0 0 1 -49.558 -44.756)"/><path d="M353 245.862c0 11.868-9.408 21.5-21 21.5s-21-9.632-21-21.5 9.408-21.5 21-21.5 21 9.632 21 21.5z" style="fill:#fff;fill-opacity:1;stroke:none;stroke-width:2;stroke-miterlimit:4;stroke-dashoffset:0;stroke-opacity:1" transform="matrix(.14486 0 0 .0979 46.758 88.196)"/><path d="M353 245.862c0 11.868-9.408 21.5-21 21.5s-21-9.632-21-21.5 9.408-21.5 21-21.5 21 9.632 21 21.5z" style="fill:#0f90cc;fill-opacity:1;stroke:none;stroke-width:2;stroke-miterlimit:4;stroke-dashoffset:0;stroke-opacity:1" transform="matrix(.08278 0 0 .08197 66.065 92.163)"/><path d="M353 245.862c0 11.868-9.408 21.5-21 21.5s-21-9.632-21-21.5 9.408-21.5 21-21.5 21 9.632 21 21.5z" style="fill:#000;fill-opacity:1;stroke:none;stroke-width:2;stroke-miterlimit:4;stroke-dashoffset:0;stroke-opacity:1" transform="matrix(.05173 0 0 .06603 75.719 96.228)"/><path d="M353 245.862c0 11.868-9.408 21.5-21 21.5s-21-9.632-21-21.5 9.408-21.5 21-21.5 21 9.632 21 21.5z" style="fill:#fff;fill-opacity:1;stroke:none;stroke-width:2;stroke-miterlimit:4;stroke-dashoffset:0;stroke-opacity:1" transform="matrix(.14486 0 0 .0979 36.67 87.855)"/><path d="M353 245.862c0 11.868-9.408 21.5-21 21.5s-21-9.632-21-21.5 9.408-21.5 21-21.5 21 9.632 21 21.5z" style="fill:#0f90cc;fill-opacity:1;stroke:none;stroke-width:2;stroke-miterlimit:4;stroke-dashoffset:0;stroke-opacity:1" transform="matrix(.08278 0 0 .08197 55.977 91.822)"/><path d="M353 245.862c0 11.868-9.408 21.5-21 21.5s-21-9.632-21-21.5 9.408-21.5 21-21.5 21 9.632 21 21.5z" style="fill:#000;fill-opacity:1;stroke:none;stroke-width:2;stroke-miterlimit:4;stroke-dashoffset:0;stroke-opacity:1" transform="matrix(.05173 0 0 .06603 65.63 95.887)"/><path d="M136.439 170.205c1.848 3.622 6.9 1.943 11.727 0-5.323.56-8.992.969-11.727 0z" style="fill:url(#l);fill-opacity:1;fill-rule:evenodd;stroke:none;stroke-width:1px;stroke-linecap:butt;stroke-linejoin:miter;stroke-opacity:1" transform="matrix(1 0 0 1 -49.558 -44.756)"/><path d="m158.58 193.856 1.264.123 1.37 14.513-3.464.466.83-15.102z" style="fill:#004cb0;fill-opacity:1;stroke:none;stroke-width:2;stroke-miterlimit:4;stroke-dashoffset:0;stroke-opacity:1" transform="matrix(1 0 0 1 -49.558 -44.756)"/><path d="M138.636 158.147c-.792 1.287-1.945 3.402-1.78 4.375.164.972 1.652.762 2.442 1.323l.33-.478c-.694-.493-1.782-.008-1.917-.808s.68-2.915 1.421-4.118l-.496-.294z" style="fill:#000;fill-opacity:1;fill-rule:evenodd;stroke:none;stroke-width:1px;stroke-linecap:butt;stroke-linejoin:miter;stroke-opacity:1" transform="matrix(1 0 0 1 -49.558 -44.756)"/><path d="M139.93 165.8c-3.803.377-6.133 3.3-8.061 5.42 0 0 6.237-3.456 8.202-3.386-.14-.491.07-1.122-.14-2.034z" style="fill:url(#m);fill-opacity:1;fill-rule:evenodd;stroke:none;stroke-width:1px;stroke-linecap:butt;stroke-linejoin:miter;stroke-opacity:1" transform="matrix(1 0 0 1 -49.558 -44.756)"/><path d="M140.799 165.655c3.382.346 9.845 2.97 10.146 5.46 0 0-7.886-4.218-9.74-3.564-.012-.51-.334-.963-.406-1.896z" style="fill:url(#n);fill-opacity:1;fill-rule:evenodd;stroke:none;stroke-width:1px;stroke-linecap:butt;stroke-linejoin:miter;stroke-opacity:1" transform="matrix(1 0 0 1 -49.558 -44.756)"/><path d="M138.27 179.65c3.634 11.222 8.705 20.945 14.463 29.543l3.685-.112c-5.737-9.208-11.725-19.603-15.15-30.811 0 0-2.036.624-2.998 1.38z" style="fill:url(#o);fill-opacity:1;fill-rule:evenodd;stroke:none;stroke-width:1px;stroke-linecap:butt;stroke-linejoin:miter;stroke-opacity:1" transform="matrix(1 0 0 1 -49.558 -44.756)"/><path d="m135.688 176.131-.25 10.25 9.313-5.688v1.438l3.687.312-.062-1.937 12.125 5.437-1.25-12.062-10.688 5.437-.25-1.812-3.75-.25v1.937l-8.875-3.062z" style="fill:url(#p);fill-opacity:1;fill-rule:evenodd;stroke:none;stroke-width:1px;stroke-linecap:butt;stroke-linejoin:miter;stroke-opacity:1" transform="matrix(1 0 0 1 -49.558 -44.756)"/><path d="m135.494 136.032-.537 2.6c7.666 2.229 17.907 1.877 26.762.919-.019-.36-.35-2.519-.35-2.519-8.52.875-19.417.813-25.875-1z" style="fill:url(#q);fill-opacity:1;fill-rule:evenodd;stroke:none;stroke-width:1px;stroke-linecap:butt;stroke-linejoin:miter;stroke-opacity:1" transform="matrix(1 0 0 1 -49.558 -44.756)"/><path d="M147.744 137.595c28.52 3.833 23.48-13.396 1.562-7.625-21.145-7.459-26.229 9.833-1.562 7.625z" style="fill:url(#r);fill-opacity:1;fill-rule:evenodd;stroke:none;stroke-width:1px;stroke-linecap:butt;stroke-linejoin:miter;stroke-opacity:1" transform="matrix(1 0 0 1 -49.558 -44.756)"/><path d="M110.813 56.406a3.719 1.656 0 1 1-7.438 0 3.719 1.656 0 1 1 7.438 0z" style="fill:url(#s);fill-opacity:1;stroke:none;stroke-width:2;stroke-miterlimit:4;stroke-dashoffset:0;stroke-opacity:1" transform="matrix(1 0 0 1 -8.252 28.027)"/><path d="M148.403 127.544c-1.81 0-3.138.611-3.47 1.375-12.88-2.722-17.582 4.484-9.532 7.562l-.406 2.063c-2.999 2.789-4.393 6.278-5.72 8.656.751.264 2.22.497 3.563.719-1.067 2.711-1.719 5.696-1.719 8.906 0 4.47 1.184 8.585 3.157 11.969a53.16 53.16 0 0 0-2.407 2.437s1.458-.778 3-1.531c3.028 4.62 7.598 7.652 12.784 7.781l-3.095-.219v.72h-.062c-.916 0-1.828.098-2.688.28l-6.126-2.125-.125 5.532c-2.33 2.304-3.782 5.481-3.782 9.031v14.938c4.958 2.456 12.894 3.611 20.94 3.5.014.019.02.043.032.062l3.688-.094-.156-.25c.495-.032.978-.083 1.469-.125v.25l3.47-.469v-.03c4.134-.58 8.021-1.461 11.157-2.845V190.7a12.689 12.689 0 0 0-12.69-12.719l-.437-4.094-8.032 4.094h-2.845l-.062-.469h-.219c7.927-.053 14.518-6.816 16.284-15.875 3.102.163 5.344-.661 8.501-1.687-5.484-1.72-4.734-13.318-11.22-20.375.02-.002.042.002.062 0-.015-.297-.202-1.574-.281-2.094 10.991-2.385 5.538-10.84-9.689-7.906.086-.14.375-.223.375-.375 0-.914-1.666-1.656-3.72-1.656z" style="fill:url(#t);fill-opacity:1;stroke:none;stroke-width:2;stroke-miterlimit:4;stroke-dashoffset:0;stroke-opacity:1" transform="matrix(1 0 0 1 -49.558 -44.756)"/></svg>