<svg xmlns="http://www.w3.org/2000/svg" xmlns:xlink="http://www.w3.org/1999/xlink" width="200" height="250" version="1.0"><defs><linearGradient xlink:href="#a" id="p" x1="652.295" x2="410.906" y1="77.395" y2="344.417" gradientTransform="matrix(.18685 0 0 .14486 -5.338 38.237)" gradientUnits="userSpaceOnUse"/><linearGradient xlink:href="#b" id="o" x1="104.75" x2="109.5" y1="57.469" y2="55.781" gradientUnits="userSpaceOnUse"/><linearGradient xlink:href="#c" id="n" x1="93.5" x2="117.139" y1="62.938" y2="57.702" gradientTransform="matrix(1 0 0 1 -35.99 2.47)" gradientUnits="userSpaceOnUse"/><linearGradient xlink:href="#b" id="m" x1="103.563" x2="111.883" y1="65.109" y2="62.671" gradientTransform="matrix(1 0 0 1 -39.518 2.595)" gradientUnits="userSpaceOnUse"/><linearGradient xlink:href="#d" id="l" x1="137.878" x2="144.193" y1="284.842" y2="281.229" gradientTransform="matrix(1 0 0 1 -76.637 -172.25)" gradientUnits="userSpaceOnUse"/><linearGradient xlink:href="#b" id="k" x1="101.393" x2="105.545" y1="124.161" y2="120.973" gradientTransform="matrix(1 0 0 1 -35.99 2.47)" gradientUnits="userSpaceOnUse"/><linearGradient xlink:href="#e" id="j" x1="294.246" x2="312.092" y1="346.327" y2="322.139" gradientTransform="matrix(.14486 0 0 .14486 17.456 51.558)" gradientUnits="userSpaceOnUse"/><linearGradient xlink:href="#c" id="i" x1="298.986" x2="449.323" y1="540.539" y2="415.539" gradientTransform="matrix(.14486 0 0 .14486 19.577 50.205)" gradientUnits="userSpaceOnUse"/><linearGradient xlink:href="#f" id="h" x1="356.442" x2="484.796" y1="437.499" y2="256.18" gradientTransform="matrix(.18682 0 0 .14486 -5.337 38.225)" gradientUnits="userSpaceOnUse"/><linearGradient id="c"><stop offset="0" style="stop-color:#008200;stop-opacity:1"/><stop offset="1" style="stop-color:#00d000;stop-opacity:1"/></linearGradient><linearGradient id="g"><stop offset="0" style="stop-color:#f0a700;stop-opacity:1"/><stop offset="1" style="stop-color:#ffed00;stop-opacity:1"/></linearGradient><linearGradient id="a"><stop offset="0" style="stop-color:#fff;stop-opacity:1"/><stop offset="1" style="stop-color:#fff;stop-opacity:0"/></linearGradient><linearGradient id="d"><stop offset="0" style="stop-color:#0083cc;stop-opacity:1"/><stop offset="1" style="stop-color:#24a4cc;stop-opacity:1"/></linearGradient><linearGradient id="b"><stop offset="0" style="stop-color:#f0eb00;stop-opacity:1"/><stop offset="1" style="stop-color:#ff0;stop-opacity:1"/></linearGradient><linearGradient id="e"><stop offset="0" style="stop-color:#c10000;stop-opacity:1"/><stop offset="1" style="stop-color:#ff433e;stop-opacity:1"/></linearGradient><linearGradient id="f"><stop offset="0" style="stop-color:#ffd8c1;stop-opacity:1"/><stop offset="1" style="stop-color:#ffeded;stop-opacity:1"/></linearGradient></defs><path d="M199 10c0-5-4-9-9-9H10c-5 0-9 4-9 9v230c0 5 4 9 9 9h180c5 0 9-4 9-9V10z" style="fill:#fff;fill-opacity:1;fill-rule:evenodd;stroke:#000;stroke-width:2;stroke-linecap:butt;stroke-linejoin:miter;stroke-opacity:1;stroke-miterlimit:4;stroke-dasharray:none"/><text xml:space="preserve" x="21.646" y="36" style="font-size:32px;font-style:normal;font-variant:normal;font-weight:400;font-stretch:normal;text-align:center;line-height:125%;writing-mode:lr-tb;text-anchor:middle;fill:red;fill-opacity:1;stroke:red;stroke-width:1px;stroke-linecap:butt;stroke-linejoin:miter;stroke-opacity:1;font-family:Nimbus Roman No9 L"><tspan x="21.646" y="36" style="font-size:32px;font-style:normal;font-variant:normal;font-weight:400;font-stretch:normal;text-align:center;line-height:125%;writing-mode:lr-tb;text-anchor:middle;fill:red;fill-opacity:1;stroke:red;stroke-opacity:1;font-family:Nimbus Roman No9 L">J</tspan></text><path d="M177.315 205.4c0 1.2-2 3.6-4 3.6s-4-1.6-4-4.4c0-4.4 6.4-11.6 8-13.6 1.6 2 8 9.2 8 13.6 0 2.8-2 4.4-4 4.4-2.01 0-4-2.4-4-3.6z" style="fill:red;fill-opacity:1;fill-rule:evenodd;stroke:red;stroke-width:1px;stroke-linecap:butt;stroke-linejoin:miter;stroke-opacity:1"/><text xml:space="preserve" x="-176.985" y="-215.752" style="font-size:32px;font-style:normal;font-variant:normal;font-weight:400;font-stretch:normal;text-align:center;line-height:125%;writing-mode:lr-tb;text-anchor:middle;fill:red;fill-opacity:1;stroke:red;stroke-width:1px;stroke-linecap:butt;stroke-linejoin:miter;stroke-opacity:1;font-family:Nimbus Roman No9 L" transform="scale(-1)"><tspan x="-176.985" y="-215.752" style="font-size:32px;font-style:normal;font-variant:normal;font-weight:400;font-stretch:normal;text-align:center;line-height:125%;writing-mode:lr-tb;text-anchor:middle;fill:red;fill-opacity:1;stroke:red;stroke-opacity:1;font-family:Nimbus Roman No9 L">J</tspan></text><path d="M40 27.5h120v195H40z" style="opacity:1;fill:#f99;fill-opacity:1;fill-rule:nonzero;stroke:red;stroke-width:2;stroke-linecap:round;stroke-linejoin:miter;stroke-miterlimit:4;stroke-dasharray:none;stroke-dashoffset:0;stroke-opacity:1"/><path d="M66.315 210.5c0 3-5 9-10 9s-10-4-10-11c0-11 16-29 20-34 4 5 20 23 20 34 0 7-5 11-10 11-5.024 0-10-6-10-9zM134.316 39.5c0-3-5-9-10-9s-10 4-10 11c0 11 16 29 20 34 4-5 20-23 20-34 0-7-5-11-10-11-5.025 0-10 6-10 9zM21.316 47.1c0-1.2-2-3.6-4-3.6s-4 1.6-4 4.4c0 4.4 6.4 11.6 8 13.6 1.6-2 8-9.2 8-13.6 0-2.8-2-4.4-4-4.4-2.01 0-4 2.4-4 3.6z" style="fill:red;fill-opacity:1;fill-rule:evenodd;stroke:red;stroke-width:1px;stroke-linecap:butt;stroke-linejoin:miter;stroke-opacity:1"/><path d="M67.892 54.313c-5.972 3.774-13.47-3.165-17.453 4.88-3.495 4.782 7.53 6.173.57 10.424-4.757 5.124-4.477 7.38-.37 8.007-1.182 5.664-.32 15.171 2.275 20.356-3.212 3.903-.805 2.562 3.552 3.376-1.354 2.154-.576 10.05-5.207 12.489-2.331 7.021-.583 14.642-1.125 21.906 11.275 4.748 24.625 5.287 35.403 2.755 4.738-.99 10.145-1.369 9.19-8.13.284-8.426 1.283-19.518-7.91-23.83-5.373-.753-7.164-4.388-3.04-9.55 3.063-8.358 6.44-4.861 11.144-6.975 4.9-1.311-7.002-4.54-5.43-9.977-1.522-4.254-3.383-9.258-6.43-12.711 7.68-.69 8.502-8.698 2.26-10.332-6.186-4.122-9.837 2.914-14.544-2.375-.78-.013-2.103-.504-2.885-.313z" style="fill:#000;fill-opacity:1;stroke:none;stroke-width:2;stroke-miterlimit:4;stroke-dashoffset:0;stroke-opacity:1" transform="translate(33.694 28.839)"/><path d="M85.235 85.573c0 11.413-7.564 20.676-16.883 20.676-9.32 0-16.884-9.263-16.884-20.676 0-11.414 7.564-20.677 16.884-20.677s16.883 9.263 16.883 20.677z" style="fill:url(#h);fill-opacity:1;stroke:none;stroke-width:2;stroke-miterlimit:4;stroke-dashoffset:0;stroke-opacity:1" transform="translate(33.694 28.839)"/><path d="M64.845 106.727a12.698 12.698 0 0 0-12.725 12.725v14.929c9.38 4.649 29.526 4.894 40.619 0v-14.93a12.698 12.698 0 0 0-12.725-12.724H64.845z" style="fill:url(#i);fill-opacity:1;stroke:none;stroke-width:2;stroke-miterlimit:4;stroke-dashoffset:0;stroke-opacity:1" transform="translate(33.694 28.839)"/><path d="M49.638 75.941c2.527-4.528 5.054-13.18 19.127-13.09 21.84.64 16.63 23.381 24.45 25.835-4.852 1.578-7.298 2.929-14.54.43.792-5.698-.5-9.878-3.925-12.815-4.27 2.24-20.74 1.175-25.112-.36z" style="fill:#8d0000;fill-opacity:1;fill-rule:evenodd;stroke:none;stroke-width:1.53712022px;stroke-linecap:butt;stroke-linejoin:miter;stroke-opacity:1" transform="translate(33.694 28.839)"/><path d="M353 245.862c0 11.868-9.408 21.5-21 21.5s-21-9.632-21-21.5 9.408-21.5 21-21.5 21 9.632 21 21.5z" style="fill:#fff;fill-opacity:1;stroke:none;stroke-width:2;stroke-miterlimit:4;stroke-dashoffset:0;stroke-opacity:1" transform="matrix(.14486 0 0 .0979 50.372 90.54)"/><path d="M353 245.862c0 11.868-9.408 21.5-21 21.5s-21-9.632-21-21.5 9.408-21.5 21-21.5 21 9.632 21 21.5z" style="fill:#04cd04;fill-opacity:1;stroke:none;stroke-width:2;stroke-miterlimit:4;stroke-dashoffset:0;stroke-opacity:1" transform="matrix(.08278 0 0 .08197 69.68 94.507)"/><path d="M353 245.862c0 11.868-9.408 21.5-21 21.5s-21-9.632-21-21.5 9.408-21.5 21-21.5 21 9.632 21 21.5z" style="fill:#000;fill-opacity:1;stroke:none;stroke-width:2;stroke-miterlimit:4;stroke-dashoffset:0;stroke-opacity:1" transform="matrix(.05173 0 0 .06603 79.333 98.573)"/><path d="M353 245.862c0 11.868-9.408 21.5-21 21.5s-21-9.632-21-21.5 9.408-21.5 21-21.5 21 9.632 21 21.5z" style="fill:#fff;fill-opacity:1;stroke:none;stroke-width:2;stroke-miterlimit:4;stroke-dashoffset:0;stroke-opacity:1" transform="matrix(.14486 0 0 .0979 40.284 90.199)"/><path d="M353 245.862c0 11.868-9.408 21.5-21 21.5s-21-9.632-21-21.5 9.408-21.5 21-21.5 21 9.632 21 21.5z" style="fill:#0ecf0e;fill-opacity:1;stroke:none;stroke-width:2;stroke-miterlimit:4;stroke-dashoffset:0;stroke-opacity:1" transform="matrix(.08278 0 0 .08197 59.591 94.166)"/><path d="M353 245.862c0 11.868-9.408 21.5-21 21.5s-21-9.632-21-21.5 9.408-21.5 21-21.5 21 9.632 21 21.5z" style="fill:#000;fill-opacity:1;stroke:none;stroke-width:2;stroke-miterlimit:4;stroke-dashoffset:0;stroke-opacity:1" transform="matrix(.05173 0 0 .06603 69.245 98.232)"/><path d="M56.801 98.955c1.849 3.622 6.9 1.943 11.728 0-5.324.56-8.993.97-11.728 0z" style="fill:url(#j);fill-opacity:1;fill-rule:evenodd;stroke:none;stroke-width:1px;stroke-linecap:butt;stroke-linejoin:miter;stroke-opacity:1" transform="translate(33.694 28.839)"/><path d="m78.942 122.606 1.264.123 1.371 14.513-3.465.466.83-15.102z" style="fill:#005a00;fill-opacity:1;stroke:none;stroke-width:2;stroke-miterlimit:4;stroke-dashoffset:0;stroke-opacity:1" transform="translate(33.694 28.839)"/><path d="M58.999 86.897c-.792 1.287-1.945 3.402-1.781 4.375.164.972 1.652.762 2.442 1.323l.331-.478c-.695-.493-1.783-.008-1.918-.808s.681-2.915 1.422-4.118l-.496-.294z" style="fill:#000;fill-opacity:1;fill-rule:evenodd;stroke:none;stroke-width:1px;stroke-linecap:butt;stroke-linejoin:miter;stroke-opacity:1" transform="translate(33.694 28.839)"/><path d="M60.293 94.55c-3.804.378-6.134 3.3-8.061 5.42 0 0 6.237-3.456 8.201-3.386-.14-.491.07-1.122-.14-2.034zM61.161 94.405c3.382.346 9.846 2.97 10.146 5.46 0 0-7.885-4.218-9.739-3.563-.013-.511-.335-.964-.407-1.897z" style="fill:#8d0000;fill-opacity:1;fill-rule:evenodd;stroke:none;stroke-width:1px;stroke-linecap:butt;stroke-linejoin:miter;stroke-opacity:1" transform="translate(33.694 28.839)"/><path d="M58.633 108.4c3.633 11.222 8.704 20.945 14.462 29.543l3.686-.112c-5.738-9.208-11.725-19.603-15.15-30.811 0 0-2.037.624-2.998 1.38z" style="fill:url(#k);fill-opacity:1;fill-rule:evenodd;stroke:none;stroke-width:1px;stroke-linecap:butt;stroke-linejoin:miter;stroke-opacity:1" transform="translate(33.694 28.839)"/><path d="m56.051 104.881-.25 10.25 9.313-5.688v1.438l3.687.312-.062-1.937 12.124 5.437-1.25-12.062-10.687 5.437-.25-1.812-3.75-.25v1.937l-8.875-3.062z" style="fill:url(#l);fill-opacity:1;fill-rule:evenodd;stroke:none;stroke-width:1px;stroke-linecap:butt;stroke-linejoin:miter;stroke-opacity:1" transform="translate(33.694 28.839)"/><path d="m55.856 64.782-.537 2.6c7.667 2.229 17.908 1.877 26.762.919-.018-.36-.35-2.519-.35-2.519-8.52.875-19.416.813-25.875-1z" style="fill:url(#m);fill-opacity:1;fill-rule:evenodd;stroke:none;stroke-width:1px;stroke-linecap:butt;stroke-linejoin:miter;stroke-opacity:1" transform="translate(33.694 28.839)"/><path d="M68.106 66.345c28.521 3.833 23.48-13.396 1.563-7.625-21.146-7.459-26.23 9.833-1.563 7.625z" style="fill:url(#n);fill-opacity:1;fill-rule:evenodd;stroke:none;stroke-width:1px;stroke-linecap:butt;stroke-linejoin:miter;stroke-opacity:1" transform="translate(33.694 28.839)"/><path d="M110.813 56.406a3.719 1.656 0 1 1-7.438 0 3.719 1.656 0 1 1 7.438 0z" style="fill:url(#o);fill-opacity:1;stroke:none;stroke-width:2;stroke-miterlimit:4;stroke-dashoffset:0;stroke-opacity:1" transform="matrix(1 0 0 1 -4.637 30.37)"/><path d="M68.768 56.294c-1.81 0-3.138.611-3.47 1.375-12.88-2.722-17.582 4.484-9.532 7.562l-.406 2.063c-2.999 2.789-4.393 6.278-5.72 8.656.751.264 2.22.497 3.563.719-1.067 2.711-1.719 5.696-1.719 8.906 0 4.47 1.184 8.585 3.157 11.969a53.16 53.16 0 0 0-2.407 2.437s1.458-.778 3-1.531c3.028 4.62 7.598 7.652 12.784 7.781l-3.095-.218v.718h-.062c-.916 0-1.828.1-2.688.282l-6.126-2.126-.125 5.532c-2.33 2.304-3.782 5.481-3.782 9.031v14.937c4.958 2.457 12.894 3.612 20.94 3.5.014.02.02.044.032.063l3.688-.094-.156-.25c.495-.032.977-.083 1.469-.125v.25l3.469-.469v-.03c4.135-.58 8.022-1.461 11.158-2.845V119.45a12.689 12.689 0 0 0-12.69-12.719l-.437-4.093-8.032 4.093h-2.845l-.062-.468h-.219c7.926-.054 14.518-6.817 16.284-15.876 3.102.163 5.344-.661 8.5-1.687-5.483-1.72-4.733-13.318-11.22-20.375.02-.002.043.002.063 0-.015-.297-.202-1.574-.281-2.094 10.991-2.385 5.538-10.84-9.69-7.906.087-.14.376-.223.376-.375 0-.914-1.666-1.656-3.72-1.656z" style="fill:url(#p);fill-opacity:1;stroke:none;stroke-width:2;stroke-miterlimit:4;stroke-dashoffset:0;stroke-opacity:1" transform="translate(33.694 28.839)"/></svg>